<svg xmlns="http://www.w3.org/2000/svg" viewBox="0 0 8.91 8.91"><defs><style>.cls-1{fill:#24b34b;}</style></defs><title>Asset 1</title><g id="Layer_2" data-name="Layer 2"><g id="Layer_1-2" data-name="Layer 1"><path class="cls-1" d="M6.19.35a4.37,4.37,0,0,1,1.42,1,4.48,4.48,0,0,1,1,1.42,4.3,4.3,0,0,1,.35,1.74,4.28,4.28,0,0,1-.35,1.73A4.39,4.39,0,0,1,6.19,8.56a4.28,4.28,0,0,1-1.73.35,4.3,4.3,0,0,1-1.74-.35,4.48,4.48,0,0,1-1.42-1A4.37,4.37,0,0,1,.35,6.19,4.46,4.46,0,0,1,6.19.35ZM6.8,3.57l-.7-.7L4,5,3,4l-.7.7L4,6.37Z"/></g></g></svg>