<svg xmlns="http://www.w3.org/2000/svg" viewBox="0 0 8.91 8.91"><defs><style>.cls-1{fill:#767a7b;}</style></defs><title>Asset 2</title><g id="Layer_2" data-name="Layer 2"><g id="Layer_1-2" data-name="Layer 1"><path class="cls-1" d="M6.19.35a4.37,4.37,0,0,1,1.42,1,4.48,4.48,0,0,1,1,1.42,4.3,4.3,0,0,1,.35,1.74,4.28,4.28,0,0,1-.35,1.73A4.39,4.39,0,0,1,6.19,8.56a4.28,4.28,0,0,1-1.73.35,4.3,4.3,0,0,1-1.74-.35,4.48,4.48,0,0,1-1.42-1A4.37,4.37,0,0,1,.35,6.19,4.46,4.46,0,0,1,6.19.35ZM.81,6a4,4,0,0,0,.85,1.26,3.87,3.87,0,0,0,1.26.84,3.91,3.91,0,0,0,4.15-.68L1.49,1.84A3.91,3.91,0,0,0,.76,3,3.77,3.77,0,0,0,.5,4.46,3.89,3.89,0,0,0,.81,6Zm7.34-.12a3.85,3.85,0,0,0,.27-1.42A4,4,0,0,0,6,.81,3.89,3.89,0,0,0,4.46.5,3.77,3.77,0,0,0,3,.76a3.91,3.91,0,0,0-1.2.73L7.42,7.07a3.75,3.75,0,0,0,.73-1.19Z"/></g></g></svg>